<svg xmlns="http://www.w3.org/2000/svg" width="85" height="5"><path data-name="Ellipse 5 copy 20" d="M2.5 0A2.5 2.5 0 110 2.5 2.5 2.5 0 012.5 0zm10 0A2.5 2.5 0 1110 2.5 2.5 2.5 0 0112.5 0zm10 0A2.5 2.5 0 1120 2.5 2.5 2.5 0 0122.5 0zm10 0A2.5 2.5 0 1130 2.5 2.5 2.5 0 0132.5 0zm10 0A2.5 2.5 0 1140 2.5 2.5 2.5 0 0142.5 0zm10 0A2.5 2.5 0 1150 2.5 2.5 2.5 0 0152.5 0zm10 0A2.5 2.5 0 1160 2.5 2.5 2.5 0 0162.5 0zm10 0A2.5 2.5 0 1170 2.5 2.5 2.5 0 0172.5 0zm10 0A2.5 2.5 0 1180 2.5 2.5 2.5 0 0182.5 0z" fill="#2a5d68" fill-rule="evenodd"/></svg>