<svg xmlns="http://www.w3.org/2000/svg" width="85" height="5" viewBox="0 0 85 5">
  <defs>
    <style>
      .cls-1 {
        fill: #2a5d68;
        fill-rule: evenodd;
      }
    </style>
  </defs>
  <path id="Ellipse_5_copy_20" data-name="Ellipse 5 copy 20" class="cls-1" d="M500.5,1890a2.5,2.5,0,1,1-2.5,2.5A2.5,2.5,0,0,1,500.5,1890Zm10,0a2.5,2.5,0,1,1-2.5,2.5A2.5,2.5,0,0,1,510.5,1890Zm10,0a2.5,2.5,0,1,1-2.5,2.5A2.5,2.5,0,0,1,520.5,1890Zm10,0a2.5,2.5,0,1,1-2.5,2.5A2.5,2.5,0,0,1,530.5,1890Zm10,0a2.5,2.5,0,1,1-2.5,2.5A2.5,2.5,0,0,1,540.5,1890Zm10,0a2.5,2.5,0,1,1-2.5,2.5A2.5,2.5,0,0,1,550.5,1890Zm10,0a2.5,2.5,0,1,1-2.5,2.5A2.5,2.5,0,0,1,560.5,1890Zm10,0a2.5,2.5,0,1,1-2.5,2.5A2.5,2.5,0,0,1,570.5,1890Zm10,0a2.5,2.5,0,1,1-2.5,2.5A2.5,2.5,0,0,1,580.5,1890Z" transform="translate(-498 -1890)"/>
</svg>
